<svg xmlns="http://www.w3.org/2000/svg" version="1.1" xmlns:xlink="http://www.w3.org/1999/xlink" xmlns:svgjs="http://svgjs.dev/svgjs" viewBox="0 0 6.338121226861725 3.120791276529825"><g transform="matrix(1,0,0,1,2.1726610376111672,0.4201719209085275)"><rect width="6.338121226861725" height="6.338121226861725" x="-2.1726610376111672" y="-2.028836896074478" fill="#ffffff"></rect><g><path d=" M 1.3185 0.1649999999999998 L 1.3185 1.2225 L 1.0245 1.2225 L 1.0245 0.6389999999999999 L 0.8250000000000001 1.2225 L 0.579 1.2225 L 0.378 0.6345 L 0.378 1.2225 L 0.084 1.2225 L 0.084 0.1649999999999998 L 0.4395 0.1649999999999998 L 0.705 0.8519999999999999 L 0.9645 0.1649999999999998 L 1.3185 0.1649999999999998 M 2.282996337890625 0.861 L 1.7264963378906248 0.861 Q 1.730996337890625 0.9299999999999999 1.764746337890625 0.9637499999999999 Q 1.798496337890625 0.9974999999999999 1.850996337890625 0.9974999999999999 Q 1.9244963378906248 0.9974999999999999 1.9559963378906249 0.9315 L 2.269496337890625 0.9315 Q 2.249996337890625 1.0185 2.193746337890625 1.0867499999999999 Q 2.137496337890625 1.1549999999999998 2.0519963378906247 1.194 Q 1.966496337890625 1.2329999999999999 1.862996337890625 1.2329999999999999 Q 1.7384963378906249 1.2329999999999999 1.641746337890625 1.1804999999999999 Q 1.5449963378906248 1.128 1.4902463378906248 1.0305 Q 1.435496337890625 0.9329999999999999 1.435496337890625 0.8009999999999999 Q 1.435496337890625 0.6689999999999999 1.489496337890625 0.5722499999999999 Q 1.543496337890625 0.4754999999999999 1.640246337890625 0.42299999999999993 Q 1.7369963378906248 0.37049999999999994 1.862996337890625 0.37049999999999994 Q 1.987496337890625 0.37049999999999994 2.083496337890625 0.4214999999999999 Q 2.179496337890625 0.4724999999999999 2.233496337890625 0.5677499999999999 Q 2.287496337890625 0.6629999999999999 2.287496337890625 0.7919999999999999 Q 2.287496337890625 0.8264999999999999 2.282996337890625 0.861 M 1.987496337890625 0.7184999999999999 Q 1.987496337890625 0.6644999999999999 1.951496337890625 0.6337499999999999 Q 1.915496337890625 0.6029999999999999 1.8614963378906249 0.6029999999999999 Q 1.8074963378906248 0.6029999999999999 1.7729963378906248 0.6322499999999999 Q 1.7384963378906249 0.6614999999999999 1.727996337890625 0.7184999999999999 L 1.987496337890625 0.7184999999999999 M 2.4037880859375 0.573 Q 2.4510380859375 0.4754999999999999 2.5335380859375 0.42299999999999993 Q 2.6160380859375 0.37049999999999994 2.7165380859374997 0.37049999999999994 Q 2.7975380859374996 0.37049999999999994 2.8612880859375 0.4042499999999999 Q 2.9250380859374996 0.43799999999999994 2.9610380859374996 0.49649999999999994 L 2.9610380859374996 0.11249999999999982 L 3.2565380859374997 0.11249999999999982 L 3.2565380859374997 1.2225 L 2.9610380859374996 1.2225 L 2.9610380859374996 1.1055 Q 2.9265380859374996 1.164 2.8635380859375 1.1985 Q 2.8005380859374998 1.2329999999999999 2.7150380859374996 1.2329999999999999 Q 2.6145380859375 1.2329999999999999 2.5327880859375 1.1804999999999999 Q 2.4510380859375 1.128 2.4037880859375 1.02975 Q 2.3565380859375 0.9315 2.3565380859375 0.8009999999999999 Q 2.3565380859375 0.6704999999999999 2.4037880859375 0.573 M 2.9182880859374998 0.6734999999999999 Q 2.8740380859375 0.6269999999999999 2.8095380859374997 0.6269999999999999 Q 2.7435380859375 0.6269999999999999 2.7000380859375 0.67275 Q 2.6565380859374996 0.7184999999999999 2.6565380859374996 0.8009999999999999 Q 2.6565380859374996 0.8819999999999999 2.7000380859375 0.9292499999999999 Q 2.7435380859375 0.9764999999999999 2.8095380859374997 0.9764999999999999 Q 2.8740380859375 0.9764999999999999 2.9182880859374998 0.9299999999999999 Q 2.9625380859374997 0.8835 2.9625380859374997 0.8009999999999999 Q 2.9625380859374997 0.7199999999999999 2.9182880859374998 0.6734999999999999 M 3.4447770996093747 0.26024999999999987 Q 3.3975270996093747 0.2174999999999998 3.3975270996093747 0.1529999999999998 Q 3.3975270996093747 0.08699999999999997 3.4447770996093747 0.04349999999999987 Q 3.4920270996093747 0 3.5700270996093746 0 Q 3.646527099609375 0 3.693777099609375 0.04349999999999987 Q 3.741027099609375 0.08699999999999997 3.741027099609375 0.1529999999999998 Q 3.741027099609375 0.2174999999999998 3.693777099609375 0.26024999999999987 Q 3.646527099609375 0.30299999999999994 3.5700270996093746 0.30299999999999994 Q 3.4920270996093747 0.30299999999999994 3.4447770996093747 0.26024999999999987 M 3.7155270996093748 0.3809999999999999 L 3.7155270996093748 1.2225 L 3.4215270996093747 1.2225 L 3.4215270996093747 0.3809999999999999 L 3.7155270996093748 0.3809999999999999" fill="#100f0d" fill-rule="nonzero"></path></g><g><path d=" M 0.22874999999999998 2.0152295454545457 Q 0.29727272727272724 1.9405704545454547 0.29727272727272724 1.8689795454545455 Q 0.29727272727272724 1.821934090909091 0.27375 1.7936386363636365 Q 0.2502272727272727 1.765343181818182 0.19704545454545452 1.765343181818182 Q 0.1452272727272727 1.765343181818182 0.11693181818181818 1.7977295454545454 Q 0.08863636363636362 1.8301159090909092 0.08522727272727272 1.8839795454545456 L 0.03886363636363636 1.8839795454545456 Q 0.042954545454545454 1.8082977272727274 0.08556818181818181 1.7663659090909092 Q 0.12818181818181817 1.724434090909091 0.19704545454545452 1.724434090909091 Q 0.2631818181818182 1.724434090909091 0.3040909090909091 1.7615931818181818 Q 0.345 1.798752272727273 0.345 1.866934090909091 Q 0.345 1.949434090909091 0.2764772727272727 2.0268204545454545 Q 0.20795454545454545 2.1042068181818183 0.10772727272727271 2.177843181818182 L 0.36 2.177843181818182 L 0.36 2.2180704545454546 L 0.03477272727272727 2.2180704545454546 L 0.03477272727272727 2.1839795454545454 Q 0.16022727272727272 2.0898886363636366 0.22874999999999998 2.0152295454545457 M 0.41319646661931814 2.1055704545454548 L 0.41319646661931814 2.069434090909091 L 0.6613782848011363 1.735343181818182 L 0.7179691938920454 1.735343181818182 L 0.7179691938920454 2.0639795454545453 L 0.7909237393465909 2.0639795454545453 L 0.7909237393465909 2.1055704545454548 L 0.7179691938920454 2.1055704545454548 L 0.7179691938920454 2.2214795454545455 L 0.6709237393465908 2.2214795454545455 L 0.6709237393465908 2.1055704545454548 L 0.41319646661931814 2.1055704545454548 M 0.6729691938920455 1.787843181818182 L 0.4684237393465909 2.0639795454545453 L 0.6729691938920455 2.0639795454545453 L 0.6729691938920455 1.787843181818182 M 1.0745437899502839 1.5805704545454546 L 0.8863619717684658 2.334661363636364 L 0.8393165172230113 2.334661363636364 L 1.026134699041193 1.5805704545454546 L 1.0745437899502839 1.5805704545454546 M 1.445438565340909 1.7701159090909093 L 1.255211292613636 2.2214795454545455 L 1.2068022017045452 2.2214795454545455 L 1.3990749289772726 1.7742068181818182 L 1.1263476562499999 1.7742068181818182 L 1.1263476562499999 1.7332977272727272 L 1.445438565340909 1.7332977272727272 L 1.445438565340909 1.7701159090909093" fill="#231f20" fill-rule="nonzero"></path></g><g clip-path="url(#SvgjsClipPath1021)"><g clip-path="url(#a8967ade5-a2e3-4e06-9d9c-54ea08e644d943f7715c-9b8c-4f2d-b75d-1f0d625a1b53)"><path d=" M -1.5569034222969356 1.8059273329404781 C -1.5504065735593286 1.7645570969080169 -1.5324973534674717 1.6380759591224043 -1.5324973534674717 1.6380759591224043 L -1.7139849359657264 1.6215827588706209 L -1.7244428974718213 1.800868336947968 C -1.7244428974718213 1.800868336947968 -1.6128050161155274 1.8058462392932493 -1.5569034222969356 1.8059273329404781" fill="#fab888" transform="matrix(1,0,0,1,0,0)" fill-rule="nonzero"></path></g><g clip-path="url(#a8967ade5-a2e3-4e06-9d9c-54ea08e644d943f7715c-9b8c-4f2d-b75d-1f0d625a1b53)"><path d=" M -1.4944956227814412 1.0759036066674235 C -1.5094761146137627 1.0690137656393996 -1.5100531271036606 0.9704849842562988 -1.4849265724084324 0.9197297180503096 C -1.4597968987267722 0.8689744518443204 -1.4572081399883114 0.83571669952118 -1.4531441006675714 0.7823789125495939 C -1.449058228441808 0.7287541788262747 -1.4282358750225748 0.6892397397207823 -1.406951911611423 0.656003820302665 C -1.3636666179097874 0.5884091463509539 -1.3533708436981504 0.475829331092232 -1.3060994853365715 0.41787232521503104 C -1.259754465945261 0.3610443924261707 -1.1522274087061852 0.3058882363647982 -1.1522274087061852 0.3058882363647982 C -1.1522274087061852 0.3058882363647982 -0.9935333790521124 0.38360714027439335 -0.9516142014076402 0.5612396555428439 C -0.9413683309789133 0.6046528276881868 -0.9319084451310201 0.643390639172141 -0.8905194951799678 0.7082749139145483 C -0.8392683101313094 0.7886262423726502 -0.8196124576375994 0.9368747864663559 -0.8231712211563749 1.0759036066674235 Z" fill="#fef4b3" transform="matrix(1,0,0,1,0,0)" fill-rule="nonzero"></path></g><g clip-path="url(#a8967ade5-a2e3-4e06-9d9c-54ea08e644d943f7715c-9b8c-4f2d-b75d-1f0d625a1b53)"><path d=" M -0.6859826029501168 0.9670478612083666 C -0.742158667574714 0.8858824772915438 -0.9330780650429751 0.9084233922347432 -0.9944472420766534 0.8629111422207449 C -1.0558164191103314 0.8173926542338829 -1.046727692647832 0.6393796226207428 -1.046727692647832 0.6393796226207428 L -1.264373684850876 0.6393796226207428 C -1.264373684850876 0.6393796226207428 -1.2552818394019447 0.8173926542338829 -1.3166541354220547 0.8629111422207449 C -1.3780201934693008 0.9084233922347432 -1.5689427099239937 0.8858824772915438 -1.625115655562159 0.9670478612083666 C -1.7186665345999788 1.1022309711389255 -1.5374066381112512 1.212368620021485 -1.5101342207508894 1.2897444354235732 C -1.4495354333658856 1.450587446729212 -1.4237570105063946 1.5719128999429264 -1.4237570105063946 1.6994513741289465 L -0.8873443669923133 1.6994513741289465 C -0.8873443669923133 1.5719128999429264 -0.8615659441328221 1.450587446729212 -0.8009671567478185 1.2897444354235734 C -0.7736916204010247 1.212368620021485 -0.5924348428987289 1.1022309711389255 -0.6859826029501168 0.9670478612083666" fill="#fab888" transform="matrix(1,0,0,1,0,0)" fill-rule="nonzero"></path></g><g clip-path="url(#a8967ade5-a2e3-4e06-9d9c-54ea08e644d943f7715c-9b8c-4f2d-b75d-1f0d625a1b53)"><path d=" M -1.1943524394551617 0.7595354559225019 C -1.1288630813449696 0.7727661963665384 -1.0720476245018369 0.7569903629940875 -1.044482022416878 0.7251486305110209 C -1.0487300819370993 0.6787287554453454 -1.0467245736614001 0.6393796226207427 -1.0467245736614001 0.6393796226207427 L -1.264370565864444 0.6393796226207427 C -1.264370565864444 0.6393796226207427 -1.2603720252587733 0.7182712654287247 -1.2757891751915582 0.7844468005539303 C -1.2507156432656719 0.7585342612778683 -1.2318114665020448 0.7519656758523283 -1.1943524394551617 0.7595354559225019" fill="#f2965d" transform="matrix(1,0,0,1,0,0)" fill-rule="nonzero"></path></g><g clip-path="url(#a8967ade5-a2e3-4e06-9d9c-54ea08e644d943f7715c-9b8c-4f2d-b75d-1f0d625a1b53)"><path d=" M -1.1321910398677861 0.6378201294048026 L -0.8806416651502025 0.5156525498544805 C -0.8514198812699154 0.5014580426029929 -0.8189605894733364 0.4833772782573824 -0.8116278523719855 0.4517008520552054 C -0.8001250304112109 0.40202787414107866 -0.858262937501461 0.35888605381530947 -0.8543174196651323 0.3080496939620913 C -0.8522994354437057 0.28208725090311915 -0.834246741975982 0.2600173029111336 -0.8289507030146492 0.23451958883051166 C -0.8238012564156147 0.2097579555478134 -0.8312961808114233 0.18368634796372543 -0.8443647339610021 0.16204058212647565 C -0.857427049137717 0.14039169730279402 -0.8757105476013998 0.12246376329234573 -0.8940096409972418 0.10502551015170256 C -0.9167780728300113 0.08332827728161904 -0.9398884980828734 0.061992777607207464 -0.9633322334322183 0.04102702755594649 C -0.9754120678828875 0.030225977542347543 -0.98770711239736 0.019428046515177697 -1.001942166472462 0.011702317123410133 C -1.0349535188674839 -0.006219378914174532 -1.0774122811646714 -0.005249374133859695 -1.1095721502637896 0.014163197418163728 C -1.1376742180150319 -0.012460470764367161 -1.1724945825405442 -0.03267462182938381 -1.2110951586214955 -0.030057792213036134 C -1.2496957347024469 -0.02744408158312043 -1.2868709339840292 -0.008050223949688226 -1.3111304104511947 0.02212285079232236 C -1.3295043595214018 0.04497878336514173 -1.3414282446504806 0.07422551913688386 -1.366130617190973 0.09001070946863043 C -1.3933437738091292 0.10740841578565913 -1.4340091189079855 0.10726182342336071 -1.4492391296548572 0.13577247839717912 C -1.4638391051424893 0.16309168055401932 -1.4435781692809946 0.19641493159222917 -1.447158765704793 0.22718997071559266 C -1.452189690819416 0.27044719353934155 -1.5028669823646084 0.3003364405160511 -1.5009207348311149 0.3438400632679185 C -1.4995078339774732 0.37541980089070714 -1.4705605209031916 0.398653130821784 -1.4608355212085886 0.4287263979979745 C -1.4540205358549299 0.44979515134532644 -1.457120808368219 0.4726697978367371 -1.454613143276987 0.49467112812722114 C -1.4473583808364334 0.5582984513375807 -1.1321910398677861 0.6378201294048026 -1.1321910398677861 0.6378201294048026" fill="#fef4b3" transform="matrix(1,0,0,1,0,0)" fill-rule="nonzero"></path></g><g clip-path="url(#a8967ade5-a2e3-4e06-9d9c-54ea08e644d943f7715c-9b8c-4f2d-b75d-1f0d625a1b53)"><path d=" M -0.9385487672444933 0.3619145896406651 C -0.9385487672444933 0.3619145896406651 -0.9080481989271352 0.317023017926611 -0.8847337753488295 0.33665079954243415 C -0.8450509109760155 0.3700551442278729 -0.8984198878119205 0.5095518123937223 -0.9489817768591331 0.48319637704433316 Z" fill="#fab888" transform="matrix(1,0,0,1,0,0)" fill-rule="nonzero"></path></g><g clip-path="url(#a8967ade5-a2e3-4e06-9d9c-54ea08e644d943f7715c-9b8c-4f2d-b75d-1f0d625a1b53)"><path d=" M -0.9299060558417529 0.3709222224559357 C -0.9299060558417529 0.3709222224559357 -0.9089464670195169 0.3423990915363897 -0.8929211147325156 0.3548719182774793 C -0.8656455783857218 0.3760966209464252 -0.9136436605859286 0.4763377258806284 -0.9370703676757821 0.44797990124197207 Z" fill="#fab888" transform="matrix(1,0,0,1,0,0)" fill-rule="nonzero"></path></g><g clip-path="url(#a8967ade5-a2e3-4e06-9d9c-54ea08e644d943f7715c-9b8c-4f2d-b75d-1f0d625a1b53)"><path d=" M -1.3753752929750664 0.36154654924170343 C -1.3753752929750664 0.36154654924170343 -1.4057947676451956 0.3165988357718755 -1.429143500074252 0.336189189550516 C -1.4688856251892717 0.3695280355208853 -1.4157505723357577 0.5091182732796912 -1.365141898492067 0.4828470505639627 Z" fill="#fab888" transform="matrix(1,0,0,1,0,0)" fill-rule="nonzero"></path></g><g clip-path="url(#a8967ade5-a2e3-4e06-9d9c-54ea08e644d943f7715c-9b8c-4f2d-b75d-1f0d625a1b53)"><path d=" M -1.3840335993099662 0.37053858712481436 C -1.3840335993099662 0.37053858712481436 -1.4049464033357242 0.3419811473545177 -1.4209904695413167 0.3544227842312885 C -1.4483003147388613 0.37560382109018803 -1.4004706578059758 0.4759229006851883 -1.376997165919644 0.4476087418565783 Z" fill="#231f20" transform="matrix(1,0,0,1,0,0)" fill-rule="nonzero"></path></g><g clip-path="url(#a8967ade5-a2e3-4e06-9d9c-54ea08e644d943f7715c-9b8c-4f2d-b75d-1f0d625a1b53)"><path d=" M -0.9062142349051896 0.3955559772949269 C -0.9313251946682584 0.5936615195022403 -1.0654883960355925 0.7254075063848671 -1.1503716117792167 0.7253388886833657 C -1.235251708536409 0.7252671519954326 -1.3690375125454854 0.5933496208590523 -1.393970690081937 0.3951442710859187 C -1.419914419222318 0.1888763413863744 -1.3799321321520435 0.0334354145807525 -1.149788361316455 0.03362879173952908 C -0.9196414714944345 0.033825287884737584 -0.8801519842803973 0.18998046258326004 -0.9062142349051896 0.3955559772949269" fill="#fab888" transform="matrix(1,0,0,1,0,0)" fill-rule="nonzero"></path></g><g clip-path="url(#a8967ade5-a2e3-4e06-9d9c-54ea08e644d943f7715c-9b8c-4f2d-b75d-1f0d625a1b53)"><path d=" M -1.111465375027941 0.03025716740666666 L -1.1113219016520746 0.029720701740383243 C -1.3647177163373312 -0.01921619537581972 -1.4156725976749607 0.21783613040638383 -1.4354719235445372 0.24733862306554028 C -1.5294719366285476 0.38742789865344696 -1.4343054226190142 0.3876025618936322 -1.4148211143790574 0.4967234211993987 C -1.3991669214774498 0.47810307220107306 -1.3861482721107812 0.4506372776819344 -1.3769659760553252 0.4132655822551439 C -1.3485551286473272 0.2975730185374054 -1.1115527066480335 0.29905453709254853 -1.010073364100374 0.14916852512210566 C -0.9740833796629064 0.16752064128728972 -0.9498831639379467 0.20106534036216306 -0.9473006431723497 0.23618512758513605 C -0.9447867401082541 0.2703941707699999 -0.9611863707670811 0.3063061805466704 -0.9458690284001166 0.33811048519255454 C -0.9316526882436059 0.36762857278387034 -0.8970756046597801 0.39451423582667916 -0.8923721731205047 0.42073867374592927 C -0.8876656225947972 0.44696311166517944 -0.902006722208583 0.47346513937686696 -0.9167564090449452 0.49447775096844493 C -0.8594731042370304 0.49453077373778687 -0.8335823978659915 0.43248165766195884 -0.8591549676209786 0.3517560508320312 C -0.8790603390292391 0.28891471220250553 -0.8498572690675432 0.022359893761145583 -1.111465375027941 0.03025716740666666" fill="#fef4b3" transform="matrix(1,0,0,1,0,0)" fill-rule="nonzero"></path></g><g clip-path="url(#a8967ade5-a2e3-4e06-9d9c-54ea08e644d943f7715c-9b8c-4f2d-b75d-1f0d625a1b53)"><path d=" M -0.5827347950955808 2.3880487226137666 L -0.4931512667991129 2.4077388839582277 C -0.4931512667991129 2.4077388839582277 -0.4715803566362282 2.029396472811843 -0.508874077402222 1.8354953243147043 C -0.513593103873657 1.8097543292923957 -0.5109232514879674 1.6227243079046894 -0.5109232514879674 1.6227243079046894 L -0.6939422563242754 1.6413103480522646 C -0.6939422563242754 1.6413103480522646 -0.6800658856888395 1.790606871587082 -0.679092761922093 1.818290995156452 C -0.670852399769065 2.051893721944996 -0.5827347950955808 2.3880487226137666 -0.5827347950955808 2.3880487226137666" fill="#fab888" transform="matrix(1,0,0,1,0,0)" fill-rule="nonzero"></path></g><g clip-path="url(#SvgjsClipPath101943f7715c-9b8c-4f2d-b75d-1f0d625a1b53)"><path d=" M -1.053352419829146 1.1281372724421237 L -1.2661016033341377 1.1281372724421237 L -1.2661016033341377 1.0333824646415983 L -1.053352419829146 1.0333824646415983 Z" fill="#ffffff" transform="matrix(1,0,0,1,0,0)" fill-rule="nonzero"></path></g><g clip-path="url(#b8967ade5-a2e3-4e06-9d9c-54ea08e644d943f7715c-9b8c-4f2d-b75d-1f0d625a1b53)"><path d=" M -1.7683395125141057 1.616632927403227 C -1.7683395125141057 1.616632927403227 -1.7374740227842176 1.130560724899695 -1.6279414572694428 0.9650860187427137 C -1.5983921798138083 0.9204408469567783 -1.4815299961841146 0.8866092011301719 -1.3626498283329944 0.8823486656642234 C -1.3147858625493583 1.0026261394368259 -1.160137158297434 1.1018099079706216 -1.160137158297434 1.1018099079706216 C -1.160137158297434 1.1018099079706216 -0.9996964962415079 1.0022986458614784 -0.952169380992515 0.8813287571009983 C -0.9052785389756255 0.8884993069078914 -0.7734795293236567 0.8938390116792705 -0.6831318493513783 0.9280667687827258 C -0.48523216024856874 0.993786931888877 -0.45094514240290806 1.616632927403227 -0.45094514240290806 1.616632927403227 L -0.7117735017553355 1.643119360182755 L -0.7224092454880475 1.5180386473050567 C -0.7426233965530642 1.6908242576583652 -0.6495621983850497 2.1641398056555063 -0.6593963626047687 2.440597406018087 C -0.9794230844342855 2.4849275601744027 -1.287182832627217 2.482784816495701 -1.5830997893382988 2.440597406018087 C -1.5662385486875534 2.291173004039562 -1.50386505802281 2.0058481252511458 -1.4770137038307518 1.7674483973303703 C -1.4562381352079967 1.5829603498846465 -1.462276492940117 1.573559724778959 -1.462276492940117 1.504627005647971 C -1.4656356413272522 1.5634635656989622 -1.4770137038307518 1.643119360182755 -1.4770137038307518 1.643119360182755 Z" fill="#285ba4" transform="matrix(1,0,0,1,0,0)" fill-rule="nonzero"></path></g><g clip-path="url(#b8967ade5-a2e3-4e06-9d9c-54ea08e644d943f7715c-9b8c-4f2d-b75d-1f0d625a1b53)"><path d=" M -0.5088709584157902 1.6223999333157735 C -0.5159136297789761 1.811379321223405 -0.5053496227341971 1.8360286709945557 -0.4994796902693983 1.8923700419000424 C -0.4959583545878057 1.9181921305695802 -0.4933384059850261 1.9534834620463066 -0.4933384059850261 1.9534834620463066 C -0.4933384059850261 1.9534834620463066 -0.5194349654605692 1.9498841517039167 -0.5429115763333325 1.9522327484871222 C -0.6192051034435582 1.9569268230671024 -0.666847621190531 1.979230695041479 -0.666847621190531 1.979230695041479 C -0.6785874861201286 1.9017613100464343 -0.67802606856239 1.840030330586658 -0.6809360829033344 1.814900656904998 C -0.6850469070205529 1.7793317356358345 -0.6879787542665203 1.7186487356171698 -0.6950183066432745 1.6411793506221253 Z" fill="#ffffff" transform="matrix(1,0,0,1,0,0)" fill-rule="nonzero"></path></g><g clip-path="url(#SvgjsClipPath101943f7715c-9b8c-4f2d-b75d-1f0d625a1b53)"><path d=" M -1.691513910244406 2.0415630535565557 L -1.4324976820089008 2.2756897700656555 L -1.2199948984320277 2.2756897700656555 L -0.8419643859288316 1.7441365074124442 L -1.244107782536895 1.399975068573037 Z" fill="#f03f45" transform="matrix(1,0,0,1,0,0)" fill-rule="nonzero"></path></g><g clip-path="url(#SvgjsClipPath101943f7715c-9b8c-4f2d-b75d-1f0d625a1b53)"><path d=" M -1.642630693436111 2.009625332396406 L -1.348282586900265 2.275693588954393 L -1.2511355165064872 2.275693588954393 L -0.8693934101493533 1.7389191430142137 L -1.2354189438762422 1.4256762166740364 Z" fill="#ffffff" transform="matrix(1,0,0,1,0,0)" fill-rule="nonzero"></path></g><g clip-path="url(#c8967ade5-a2e3-4e06-9d9c-54ea08e644d943f7715c-9b8c-4f2d-b75d-1f0d625a1b53)"><path d=" M -1.1523428112041652 1.5267936422193447 L -1.1572333819293537 1.5322955342851816 L -1.1050121921003804 1.5753936888009046 C -1.1016967095232917 1.5957076474317413 -1.092717147585908 1.62093400969279 -1.0553953559420277 1.613994264881856 L -0.994353672483697 1.6665055204489938 L -0.9893851270977115 1.6610722460846583 L -1.052547721329721 1.6067332644684384 L -1.0540978575863653 1.6070514010844903 C -1.080518791650824 1.612484675448826 -1.0937713649998837 1.6020734987392093 -1.0983999408647942 1.572231036558978 L -1.0985590091728201 1.5711799381314342 Z" fill="#9c9d9c" transform="matrix(1,0,0,1,0,0)" fill-rule="nonzero"></path></g><g clip-path="url(#c8967ade5-a2e3-4e06-9d9c-54ea08e644d943f7715c-9b8c-4f2d-b75d-1f0d625a1b53)"><path d=" M -0.9394563922961706 1.6607042056856967 L -0.9695234214994973 1.6899166326066883 C -0.9865374924854048 1.6927642672189949 -0.9951521330102584 1.684832684722723 -0.9943567914701288 1.666505520448994 L -0.9715850715309703 1.6332072213022395 Z" fill="#100f0d" transform="matrix(1,0,0,1,0,0)" fill-rule="nonzero"></path></g><g clip-path="url(#c8967ade5-a2e3-4e06-9d9c-54ea08e644d943f7715c-9b8c-4f2d-b75d-1f0d625a1b53)"><path d=" M -1.1265082465889 1.5006253460558685 L -1.1572365009157854 1.5322924152987498 C -1.18094703577094 1.5396002005086455 -1.1904225165509925 1.5298845577733382 -1.1862087658815221 1.5034074819531056 L -1.1596568343869245 1.4722519264850527 Z" fill="#100f0d" transform="matrix(1,0,0,1,0,0)" fill-rule="nonzero"></path></g><g clip-path="url(#c8967ade5-a2e3-4e06-9d9c-54ea08e644d943f7715c-9b8c-4f2d-b75d-1f0d625a1b53)"><path d=" M -0.930030815299028 1.0120829062982872 L -0.930030815299028 1.0269324007004696 C -1.0277611361555676 1.0269324007004696 -1.0524510327503322 1.2362351041982336 -1.0630337537137025 1.4185741699923917 C -1.0640287103854724 1.4356662156390962 -1.0581026361648997 1.4519535627863756 -1.0463440573167107 1.4644295085138967 C -1.0345480506313391 1.4769491200514648 -1.0185881970594073 1.4838389610794886 -1.0014057008061785 1.4838389610794886 L -0.9472195495251208 1.4838389610794886 L -0.9472195495251208 1.4986915744681026 L -1.0014057008061785 1.4986915744681026 C -1.0227177350952168 1.4986915744681026 -1.042504585019066 1.4901424326583186 -1.0571326313845848 1.474622356173282 C -1.0717201309264894 1.4591428265118596 -1.0790747009328632 1.4389286754468429 -1.0778458202787022 1.4177133297371927 C -1.0661964059556293 1.2171313123029663 -1.03952595297662 1.0120829062982872 -0.930030815299028 1.0120829062982872" fill="#bbb8b3" transform="matrix(1,0,0,1,0,0)" fill-rule="nonzero"></path></g><g clip-path="url(#c8967ade5-a2e3-4e06-9d9c-54ea08e644d943f7715c-9b8c-4f2d-b75d-1f0d625a1b53)"><path d=" M -0.9472226685115526 1.4986915744681026 L -0.9472226685115526 1.4838389610794884 L -0.9278038589866655 1.4760976367555614 C -0.9232688527147114 1.4742823866522068 -0.9183377351659084 1.4776321780800465 -0.9183377351659084 1.482519629818803 L -0.9183377351659084 1.4977059747556287 C -0.9183343946353629 1.4998711545676195 -0.9193467813053331 1.501912548732346 -0.9210724345269641 1.503220270314363 C -0.9227980877485951 1.5045279918963803 -0.9250371951390312 1.5049506205743062 -0.9271208009580834 1.5043618918012611 Z" fill="#100f0d" transform="matrix(1,0,0,1,0,0)" fill-rule="nonzero"></path></g><g clip-path="url(#c8967ade5-a2e3-4e06-9d9c-54ea08e644d943f7715c-9b8c-4f2d-b75d-1f0d625a1b53)"><path d=" M -0.899870216502745 1.0120829062982872 L -0.899870216502745 1.0269324007004696 C -0.8021398956462056 1.0269324007004696 -0.7774531180378725 1.2362351041982336 -0.7668641591016385 1.4185741699923917 C -0.7658692024298688 1.4356662156390962 -0.7717983956368732 1.4519535627863756 -0.7835569744850623 1.4644295085138967 C -0.7953529811704338 1.4769491200514648 -0.8113128347423657 1.4838389610794886 -0.8284984499820265 1.4838389610794886 L -0.8826846012630842 1.4838389610794886 L -0.8826846012630842 1.4986915744681026 L -0.8284984499820265 1.4986915744681026 C -0.8071864156929879 1.4986915744681026 -0.787399565769139 1.4901424326583186 -0.7727684004171882 1.474622356173282 C -0.7581809008752836 1.4591428265118596 -0.7508263308689096 1.4389286754468429 -0.7520552115230705 1.4177133297371927 C -0.7637046258461437 1.2171313123029663 -0.7903781978115847 1.0120829062982872 -0.899870216502745 1.0120829062982872" fill="#bbb8b3" transform="matrix(1,0,0,1,0,0)" fill-rule="nonzero"></path></g><g clip-path="url(#c8967ade5-a2e3-4e06-9d9c-54ea08e644d943f7715c-9b8c-4f2d-b75d-1f0d625a1b53)"><path d=" M -0.8826814822766522 1.4986915744681026 L -0.8826814822766522 1.4838389610794884 L -0.9020971728151075 1.4760976367555614 C -0.9066352980734935 1.4742823866522068 -0.9115632966358644 1.4776321780800465 -0.9115632966358644 1.482519629818803 L -0.9115632966358644 1.4977059747556287 C -0.9115663599499615 1.4998704298054473 -0.9105543886378985 1.501911097738406 -0.9088295369233199 1.503218676267326 C -0.9071046852087415 1.5045262547962461 -0.9048665338973416 1.5049494453636316 -0.9027833498301208 1.5043618918012611 Z" fill="#100f0d" transform="matrix(1,0,0,1,0,0)" fill-rule="nonzero"></path></g><g clip-path="url(#c8967ade5-a2e3-4e06-9d9c-54ea08e644d943f7715c-9b8c-4f2d-b75d-1f0d625a1b53)"><path d=" M -0.930030815299028 1.008932730002088 L -0.899867097516313 1.008932730002088 C -0.8449947692202416 1.008932730002088 -0.8062444817905601 1.057844675226836 -0.7813986358742009 1.1584600585328648 C -0.7811228298837274 1.1595764933817492 -0.7813083320698857 1.1607569618391198 -0.7819132686354613 1.1617349942863393 C -0.7825209418265358 1.1627367783681049 -0.7835072177844746 1.1634509006409568 -0.7846486197362204 1.1637155506705832 L -0.7967596440512119 1.166541352377867 C -0.7970807390155381 1.1666164152960117 -0.7974092577583853 1.1666551261032896 -0.7977390057908222 1.1666567548758464 C -0.7997382760936576 1.1666567548758464 -0.8014817895090787 1.1652656869272278 -0.8019714703788838 1.1632726545972563 C -0.8240819651944838 1.0736516984636058 -0.8561014799041677 1.0300825769966688 -0.899867097516313 1.0300825769966688 L -0.930030815299028 1.0300825769966688 C -0.9737964329111732 1.0300825769966688 -1.005822185593721 1.0736516984636058 -1.027929561422889 1.1632757735836883 C -1.0283914498634692 1.1652442349390462 -1.0301401612078178 1.1666411421588498 -1.0321620260109508 1.1666567548758464 C -1.032490746736675 1.166655156722244 -1.0328182357602564 1.166616443962268 -1.0331382687641293 1.166541352377867 L -1.0452524120655526 1.1637155506705832 C -1.0463918069051477 1.1634500322502255 -1.0473758238335713 1.1627359171078837 -1.047981525193448 1.1617349942863393 C -1.0485916154878339 1.1607589304110384 -1.0487785171155017 1.1595767213203678 -1.04849927694114 1.1584600585328648 C -1.0236534310247811 1.057844675226836 -0.9849031435950993 1.008932730002088 -0.930030815299028 1.008932730002088" fill="#100f0d" transform="matrix(1,0,0,1,0,0)" fill-rule="nonzero"></path></g><g clip-path="url(#c8967ade5-a2e3-4e06-9d9c-54ea08e644d943f7715c-9b8c-4f2d-b75d-1f0d625a1b53)"><path d=" M -0.9149536348873183 1.0584715914996439 C -0.8836390111112394 1.0584715914996439 -0.854345490543019 1.078863524791278 -0.8302482013703112 1.1174453869536378 C -0.8151242361621234 1.1416518406514615 -0.806375479220699 1.1661514790738816 -0.8038990039937859 1.1735840237410524 L -0.7776371382373533 1.1666754687944374 C -0.7763453551544326 1.1664036632895862 -0.7750674429491005 1.1671928871946389 -0.77473202688613 1.1684696322085273 C -0.7743966108231592 1.1697463772224155 -0.7751216100726288 1.1710617897300009 -0.7763801867053055 1.171459993980942 L -0.8072020106251473 1.1795693587038312 L -0.8078944256130247 1.1772893796221264 C -0.8082437520933953 1.1761478305880582 -0.8432543747912523 1.06342454195347 -0.9149536348873183 1.06342454195347 C -0.9866809658612711 1.06342454195347 -1.021485735454624 1.1763973495026085 -1.021825704975699 1.177535779550245 L -1.0224900490856896 1.179728427011857 L -1.0517243089117043 1.1733500997586617 C -1.0530576152390694 1.1730561844781473 -1.0539033978852723 1.1717408322244156 -1.0536175336758555 1.1704057765669666 C -1.0533250577952522 1.1690712031546666 -1.0520092512048798 1.1682237345032402 -1.0506732104841605 1.1685094328163832 L -1.0258616734185524 1.1739239932621277 C -1.023441339947413 1.1665912561607767 -1.0147175348974438 1.1419356684167623 -0.9995748557706645 1.117573265397345 C -0.9755305893672988 1.078910309587756 -0.9462682586633971 1.0584715914996439 -0.9149536348873183 1.0584715914996439" fill="#dbdad8" transform="matrix(1,0,0,1,0,0)" fill-rule="nonzero"></path></g><g clip-path="url(#c8967ade5-a2e3-4e06-9d9c-54ea08e644d943f7715c-9b8c-4f2d-b75d-1f0d625a1b53)"><path d=" M -1.3467773063811552 0.8775922113556058 C -1.3529244642601548 0.8741107820625437 -1.3586987478137902 0.8700086892212733 -1.3640097064172942 0.8653501896104753 C -1.4243527369148836 0.9357956171609254 -1.4406962258179368 1.069968175487555 -1.4139259652731078 1.275459477565561 L -1.3930443511116686 1.2727303644376657 C -1.4191658624786667 1.07218265585419 -1.4040918010533887 0.9429879998728415 -1.346942612662045 0.877769993582223 C -1.346889589892703 0.8777076138535854 -1.346833448136929 0.8776545910842435 -1.3467773063811552 0.8775922113556058" fill="#100f0d" transform="matrix(1,0,0,1,0,0)" fill-rule="nonzero"></path></g><g clip-path="url(#c8967ade5-a2e3-4e06-9d9c-54ea08e644d943f7715c-9b8c-4f2d-b75d-1f0d625a1b53)"><path d=" M -0.9570630707041353 0.862072134870569 C -0.9636035852517885 0.8653751415019304 -0.9700910770300996 0.8687841936719756 -0.9763228119209966 0.872682926711826 C -0.9488227085511074 0.9031710190834566 -0.9333088700389344 0.9500712180596416 -0.9288456004549136 1.0214804124175427 L -0.9078267508904717 1.0201610811568573 C -0.9124272558774954 0.9466122621066864 -0.9278880716203263 0.8963747476483892 -0.9570630707041353 0.862072134870569" fill="#100f0d" transform="matrix(1,0,0,1,0,0)" fill-rule="nonzero"></path></g><g clip-path="url(#c8967ade5-a2e3-4e06-9d9c-54ea08e644d943f7715c-9b8c-4f2d-b75d-1f0d625a1b53)"><path d=" M -1.3451523144501456 1.3171603261598015 C -1.3451523144501456 1.3465411783481147 -1.368943942952529 1.3703608777283849 -1.3982873673036595 1.3703608777283849 C -1.42763079165479 1.3703608777283849 -1.4514193011707417 1.3465411783481147 -1.4514193011707417 1.3171603261598015 C -1.4514193011707417 1.2877794739714885 -1.42763079165479 1.263966012564082 -1.3982873673036595 1.263966012564082 C -1.368943942952529 1.263966012564082 -1.3451523144501456 1.2877794739714885 -1.3451523144501456 1.3171603261598015" fill="#dbdad8" transform="matrix(1,0,0,1,0,0)" fill-rule="nonzero"></path></g><g clip-path="url(#c8967ade5-a2e3-4e06-9d9c-54ea08e644d943f7715c-9b8c-4f2d-b75d-1f0d625a1b53)"><path d=" M -1.353826215717205 1.3171603261598015 C -1.353826215717205 1.3417472962023145 -1.3737347061118972 1.36167761950203 -1.3982873673036595 1.36167761950203 C -1.4228431474818537 1.36167761950203 -1.4427485188901141 1.3417472962023145 -1.4427485188901141 1.3171603261598015 C -1.4427485188901141 1.2925764751037203 -1.4228431474818537 1.2726461518040049 -1.3982873673036595 1.2726461518040049 C -1.3737347061118972 1.2726461518040049 -1.353826215717205 1.2925764751037203 -1.353826215717205 1.3171603261598015" fill="#8a8889" transform="matrix(1,0,0,1,0,0)" fill-rule="nonzero"></path></g><g clip-path="url(#c8967ade5-a2e3-4e06-9d9c-54ea08e644d943f7715c-9b8c-4f2d-b75d-1f0d625a1b53)"><path d=" M -1.3745456425841862 1.3171603261598015 C -1.3745456425841862 1.330288140051586 -1.3851751483440344 1.3409301217571616 -1.3982842483172278 1.3409301217571616 C -1.4113933482904208 1.3409301217571616 -1.4220197350638373 1.330288140051586 -1.4220197350638373 1.3171603261598015 C -1.4220197350638373 1.304035631254449 -1.4113933482904208 1.2933936495488731 -1.3982842483172278 1.2933936495488731 C -1.3851751483440344 1.2933936495488731 -1.3745456425841862 1.304035631254449 -1.3745456425841862 1.3171603261598015" fill="#dbdad8" transform="matrix(1,0,0,1,0,0)" fill-rule="nonzero"></path></g><g clip-path="url(#c8967ade5-a2e3-4e06-9d9c-54ea08e644d943f7715c-9b8c-4f2d-b75d-1f0d625a1b53)"><path d=" M -1.2842728182862726 0.8129605745141809 C -1.2842728182862726 0.8129605745141809 -1.3298162581645898 0.8218808757093587 -1.3627777067767015 0.8638655520689004 C -1.3679396293214636 0.8697541984522905 -1.3727553443722869 0.8761450016512135 -1.377287231657809 0.8829506300455764 C -1.3714391320980333 0.8868244111939718 -1.3656097464568488 0.8907418581524136 -1.359509008996091 0.8942257659968239 C -1.355673165431277 0.8884795665840669 -1.3514769956954118 0.8829822508700251 -1.3469457316484768 0.8777668745957912 C -1.3321523790020682 0.8608838010400227 -1.3157652242889688 0.8474596834372097 -1.2955417162646565 0.8392536301349325 C -1.2955417162646565 0.8392536301349325 -1.2870892630342605 0.8242294724925647 -1.2842728182862726 0.8129605745141809" fill="#100f0d" transform="matrix(1,0,0,1,0,0)" fill-rule="nonzero"></path></g><g clip-path="url(#c8967ade5-a2e3-4e06-9d9c-54ea08e644d943f7715c-9b8c-4f2d-b75d-1f0d625a1b53)"><path d=" M -1.0113833384017639 0.8454323422564874 C -0.9870708391652564 0.8556875696445101 -0.9731258508283193 0.8728045671826695 -0.9601103204480824 0.8949649657811796 C -0.9596611864018916 0.8947435177445161 -0.9592276472878604 0.894509593762125 -0.958716133513032 0.8943411684948035 C -0.9522816645040627 0.8921921868432379 -0.9458596714408211 0.8899901824223304 -0.9395374859433996 0.8875667299647594 C -0.9498706879922192 0.868937024007138 -0.9627645779016126 0.8537631550160399 -0.9785497682333592 0.8414743484744313 C -0.9978687701924261 0.8270459172405527 -1.0251006407291736 0.8181256160453748 -1.0251006407291736 0.8181256160453748 C -1.0194677512331978 0.8322109587717466 -1.0113833384017639 0.8454323422564874 -1.0113833384017639 0.8454323422564874" fill="#100f0d" transform="matrix(1,0,0,1,0,0)" fill-rule="nonzero"></path></g><g clip-path="url(#c8967ade5-a2e3-4e06-9d9c-54ea08e644d943f7715c-9b8c-4f2d-b75d-1f0d625a1b53)"><path d=" M -1.5206701569177814 1.7925999039170535 L -1.283433810936097 1.9790123659912473 C -1.283433810936097 1.9790123659912473 -1.1481696073583092 2.0096688836301997 -1.1351416010323447 2.0201112502041347 C -1.1221167136928123 2.030547378805206 -1.0905494520157513 2.088379625225132 -1.0905494520157513 2.088379625225132 C -1.1071830066569692 2.1004812925808283 -1.1257939986959993 2.101420107496824 -1.1489867818034618 2.076443264150326 C -1.1554025368938396 2.0659634697392084 -1.1638300382327804 2.0596693551196736 -1.173745296099728 2.0564692750405644 L -1.1546820510280753 2.0933980743940284 L -1.103299868549278 2.1192544719143163 C -1.0808525231990351 2.138264694216627 -1.0845235702293583 2.1577708353616067 -1.1043166581260713 2.170964147968461 C -1.103823858269834 2.18944102359092 -1.1127036126413974 2.1988666005880626 -1.1272505653596876 2.2028152374108227 C -1.1307438301633934 2.2230699352994545 -1.1450818107907477 2.2257709775494625 -1.1597753558713362 2.227904364268869 C -1.170485955278413 2.2451336453185764 -1.1800550056514223 2.2462533614476214 -1.1966760843469126 2.2428224763725524 C -1.1966760843469126 2.2428224763725524 -1.2665257854888734 2.2063116212009612 -1.2777260657657559 2.196692667045042 C -1.2889263460426381 2.187070593902691 -1.3510752696842865 2.0915984192228327 -1.3510752696842865 2.0915984192228327 C -1.3510752696842865 2.0915984192228327 -1.7605264515022454 1.8502606060832258 -1.7205566403776984 1.7810284642547773 C -1.6805868292531516 1.7117994414127606 -1.5206701569177814 1.7925999039170535 -1.5206701569177814 1.7925999039170535" fill="#fab888" transform="matrix(1,0,0,1,0,0)" fill-rule="nonzero"></path></g><g clip-path="url(#c8967ade5-a2e3-4e06-9d9c-54ea08e644d943f7715c-9b8c-4f2d-b75d-1f0d625a1b53)"><path d=" M -1.7282667748373068 1.7847338201358511 C -1.7282667748373068 1.76510915750646 -1.7232732775598663 1.7004868776243307 -1.716530028894141 1.621576520897757 L -1.5309596931565548 1.6387059943816442 C -1.5352919653104364 1.6820536678119176 -1.5465421493702292 1.724356480787511 -1.5497141585714513 1.7674390403710745 L -1.4952504174979564 1.8109177112314867 C -1.4952504174979564 1.8109177112314867 -1.5304637743138856 1.8312316698623237 -1.556288981969855 1.8711422202446648 C -1.5727229214794327 1.8899216375510166 -1.5821110706393926 1.9439175306597294 -1.5821110706393926 1.9439175306597294 L -1.6742740007150256 1.8715944732772876 C -1.711832835327729 1.841075191041338 -1.7282667748373068 1.8105559088053889 -1.7282667748373068 1.7847338201358511" fill="#ffffff" transform="matrix(1,0,0,1,0,0)" fill-rule="nonzero"></path></g><g clip-path="url(#d8967ade5-a2e3-4e06-9d9c-54ea08e644d943f7715c-9b8c-4f2d-b75d-1f0d625a1b53)"><path d=" M -1.3929757334101673 0.3556298319804262 L -1.390165526635043 0.3791532276496679 C -1.390165526635043 0.3791532276496679 -1.3791149577068909 0.38119616376254956 -1.3732793340928429 0.3992550952031369 C -1.3724387459379341 0.4019472131752288 -1.369955152074769 0.40378784619056934 -1.3671349308220384 0.40380881539368224 L -1.3622880259068963 0.40380881539368224 C -1.3612182135607613 0.4192415602586263 -1.3520359175053056 0.5010962401768947 -1.2783966478486102 0.5056998641503501 C -1.2757103900619868 0.5058700786536069 -1.273019474141385 0.5059564126394631 -1.2703278299493355 0.5059587400241962 C -1.2461650420615584 0.5059587400241962 -1.226434333893483 0.49876947629871193 -1.211578601518437 0.4845344222236099 C -1.1845369891540343 0.4586250019339797 -1.1822102252758513 0.41809065426526243 -1.1820449189949618 0.40869626713243873 L -1.1800955524750365 0.40869626713243873 C -1.1782335175752041 0.40869626713243873 -1.1766740243592637 0.4072989612109563 -1.1764744092276236 0.4054462832704194 C -1.176125082747253 0.40217446650337696 -1.1755823791081057 0.39694080727068165 -1.1751488399940744 0.39212509221985836 C -1.1751488399940744 0.39212509221985836 -1.1602307278903905 0.387415422707719 -1.150047237190301 0.387415422707719 C -1.1398637464902115 0.387415422707719 -1.124939396413664 0.39212509221985836 -1.124939396413664 0.39212509221985836 C -1.1245089762860647 0.39694080727068165 -1.1239662726469175 0.40217446650337696 -1.123613827180115 0.4054462832704194 C -1.1234189379702562 0.40729548966382817 -1.1218583683308947 0.40869852121189937 -1.1199989219055655 0.40869626713243873 L -1.1180495553856404 0.40869626713243873 C -1.117881130118319 0.4180906542652625 -1.1155543662401362 0.4586250019339797 -1.0885158728621653 0.4845344222236099 C -1.0736570215006873 0.49876947629871193 -1.053926313332612 0.5059587400241962 -1.0297666444312668 0.5059587400241962 C -1.0271342198827595 0.5059587400241962 -1.0244362966191831 0.5058714084041035 -1.0216947075455602 0.5056998641503501 C -0.9480554378888647 0.5010962401768947 -0.938873141833409 0.4192415602586263 -0.9378033294872741 0.40380881539368224 L -0.9329564245721319 0.40380881539368224 C -0.9301368608377122 0.40380881539368224 -0.9276790995293904 0.4019436615074178 -0.9268120213013276 0.3992550952031369 C -0.9209732787008474 0.38119616376254956 -0.9099289477455592 0.3791532276496679 -0.9099289477455592 0.3791532276496679 L -0.9071187409704349 0.3556298319804262 C -0.9071187409704349 0.3556298319804262 -1.0397536389861477 0.32715660484379033 -1.1256006215372227 0.3821630495564325 C -1.1256006215372227 0.3821630495564325 -1.1389810733299894 0.3782986253673327 -1.150047237190301 0.3782986253673327 C -1.1611102820641808 0.3782986253673327 -1.1744907338569477 0.3821630495564325 -1.1744907338569477 0.3821630495564325 C -1.260337716408023 0.32715660484379033 -1.3929757334101673 0.3556298319804262 -1.3929757334101673 0.3556298319804262 M -1.1143410805181346 0.408222181194793 C -1.114097799576448 0.40505640996643444 -1.1116712281324452 0.38509489680240006 -1.0884285412420724 0.3751827579218842 C -1.0631429182388183 0.36439418385401007 -0.9550575624284362 0.357641578228989 -0.9482893618712558 0.3704855643554724 C -0.9416428017849187 0.3830987454859966 -0.9415086853683478 0.40302594979928025 -0.9415086853683478 0.4037401976921809 C -0.9425753787280509 0.4189234236425745 -0.951517512828252 0.49759361841389305 -1.0219286315279512 0.50200074624214 C -1.0486708211948934 0.5036725229696278 -1.0702386123713463 0.4969074413988793 -1.085939590069432 0.48187080781078406 C -1.1120423875178387 0.4568752505456948 -1.1141820122101087 0.4162410953111574 -1.1143410805181344 0.408222181194793 M -1.3585857890122541 0.4037401976921809 C -1.3585826700258223 0.4030259497992803 -1.3584485536092514 0.3830987454859966 -1.3518019935229144 0.3704855643554724 C -1.3450337929657339 0.357641578228989 -1.2369484371553519 0.36439418385401007 -1.2116628141520978 0.3751827579218842 C -1.1884201272617252 0.38509489680240006 -1.1859935558177221 0.40505640996643444 -1.1857533938624676 0.408222181194793 C -1.1859155811569253 0.41624109531115744 -1.1880489678763313 0.4568752505456948 -1.2141517653247382 0.48187080781078406 C -1.2298527430228239 0.4969074413988793 -1.2514205341992768 0.5036725229696278 -1.278162723866219 0.50200074624214 C -1.3485738425659182 0.49759361841389305 -1.3575190956525511 0.4189234236425745 -1.3585857890122541 0.4037401976921809" fill="#285ba4" transform="matrix(1,0,0,1,0,0)" fill-rule="nonzero"></path></g><g clip-path="url(#d8967ade5-a2e3-4e06-9d9c-54ea08e644d943f7715c-9b8c-4f2d-b75d-1f0d625a1b53)"><path d=" M -1.3929757334101673 0.3556298319804262 L -1.390165526635043 0.3791532276496679 C -1.390165526635043 0.3791532276496679 -1.3791149577068909 0.38119616376254956 -1.3732793340928429 0.3992550952031369 C -1.3724387459379341 0.4019472131752288 -1.369955152074769 0.40378784619056934 -1.3671349308220384 0.40380881539368224 L -1.3622880259068963 0.40380881539368224 C -1.3612182135607613 0.4192415602586263 -1.3520359175053056 0.5010962401768947 -1.2783966478486102 0.5056998641503501 C -1.2757103900619868 0.5058700786536069 -1.273019474141385 0.5059564126394631 -1.2703278299493355 0.5059587400241962 C -1.2461650420615584 0.5059587400241962 -1.226434333893483 0.49876947629871193 -1.211578601518437 0.4845344222236099 C -1.1845369891540343 0.4586250019339797 -1.1822102252758513 0.41809065426526243 -1.1820449189949618 0.40869626713243873 L -1.1800955524750365 0.40869626713243873 C -1.1782335175752041 0.40869626713243873 -1.1766740243592637 0.4072989612109563 -1.1764744092276236 0.4054462832704194 C -1.176125082747253 0.40217446650337696 -1.1755823791081057 0.39694080727068165 -1.1751488399940744 0.39212509221985836 C -1.1751488399940744 0.39212509221985836 -1.1602307278903905 0.387415422707719 -1.150047237190301 0.387415422707719 C -1.1398637464902115 0.387415422707719 -1.124939396413664 0.39212509221985836 -1.124939396413664 0.39212509221985836 C -1.1245089762860647 0.39694080727068165 -1.1239662726469175 0.40217446650337696 -1.123613827180115 0.4054462832704194 C -1.1234189379702562 0.40729548966382817 -1.1218583683308947 0.40869852121189937 -1.1199989219055655 0.40869626713243873 L -1.1180495553856404 0.40869626713243873 C -1.117881130118319 0.4180906542652625 -1.1155543662401362 0.4586250019339797 -1.0885158728621653 0.4845344222236099 C -1.0736570215006873 0.49876947629871193 -1.053926313332612 0.5059587400241962 -1.0297666444312668 0.5059587400241962 C -1.0271342198827595 0.5059587400241962 -1.0244362966191831 0.5058714084041035 -1.0216947075455602 0.5056998641503501 C -0.9480554378888647 0.5010962401768947 -0.938873141833409 0.4192415602586263 -0.9378033294872741 0.40380881539368224 L -0.9329564245721319 0.40380881539368224 C -0.9301368608377122 0.40380881539368224 -0.9276790995293904 0.4019436615074178 -0.9268120213013276 0.3992550952031369 C -0.9209732787008474 0.38119616376254956 -0.9099289477455592 0.3791532276496679 -0.9099289477455592 0.3791532276496679 L -0.9071187409704349 0.3556298319804262 C -0.9071187409704349 0.3556298319804262 -1.0397536389861477 0.32715660484379033 -1.1256006215372227 0.3821630495564325 C -1.1256006215372227 0.3821630495564325 -1.1389810733299894 0.3782986253673327 -1.150047237190301 0.3782986253673327 C -1.1611102820641808 0.3782986253673327 -1.1744907338569477 0.3821630495564325 -1.1744907338569477 0.3821630495564325 C -1.260337716408023 0.32715660484379033 -1.3929757334101673 0.3556298319804262 -1.3929757334101673 0.3556298319804262 Z M -1.1143410805181346 0.408222181194793 C -1.114097799576448 0.40505640996643444 -1.1116712281324452 0.38509489680240006 -1.0884285412420724 0.3751827579218842 C -1.0631429182388183 0.36439418385401007 -0.9550575624284362 0.357641578228989 -0.9482893618712558 0.3704855643554724 C -0.9416428017849187 0.3830987454859966 -0.9415086853683478 0.40302594979928025 -0.9415086853683478 0.4037401976921809 C -0.9425753787280509 0.4189234236425745 -0.951517512828252 0.49759361841389305 -1.0219286315279512 0.50200074624214 C -1.0486708211948934 0.5036725229696278 -1.0702386123713463 0.4969074413988793 -1.085939590069432 0.48187080781078406 C -1.1120423875178387 0.4568752505456948 -1.1141820122101087 0.4162410953111574 -1.1143410805181344 0.408222181194793 Z M -1.3585857890122544 0.4037401976921809 C -1.3585826700258226 0.40302594979928025 -1.3584485536092517 0.3830987454859966 -1.3518019935229146 0.3704855643554724 C -1.345033792965734 0.357641578228989 -1.2369484371553519 0.36439418385401007 -1.2116628141520978 0.3751827579218842 C -1.1884201272617254 0.38509489680240006 -1.1859935558177224 0.40505640996643444 -1.1857533938624676 0.408222181194793 C -1.1859155811569253 0.4162410953111574 -1.1880489678763315 0.4568752505456948 -1.2141517653247385 0.48187080781078406 C -1.2298527430228239 0.4969074413988793 -1.2514205341992768 0.5036725229696278 -1.278162723866219 0.50200074624214 C -1.3485738425659184 0.49759361841389305 -1.3575190956525514 0.4189234236425745 -1.3585857890122544 0.40374019769218084 Z" fill="none" transform="matrix(1,0,0,1,0,0)" fill-rule="nonzero" stroke-dasharray="none" stroke-miterlimit="10" stroke-linejoin="miter" stroke-linecap="butt" stroke-width="0.00586993246479885" stroke="#285ba4"></path></g></g></g><defs><clipPath id="SvgjsClipPath1021"><path d=" M -1.806703045626234 -0.05421392892359411 h 1.4067030456262342 v 2.3299074033017337 h -1.4067030456262342 Z"></path></clipPath><clipPath id="a8967ade5-a2e3-4e06-9d9c-54ea08e644d943f7715c-9b8c-4f2d-b75d-1f0d625a1b53"><path d=" M -1.8067030456262343 2.27569347437814 L -0.4000027370110062 2.27569347437814 L -0.4000027370110062 -0.05420810415508578 L -1.8067030456262343 -0.05420810415508578 Z"></path></clipPath><clipPath id="SvgjsClipPath101943f7715c-9b8c-4f2d-b75d-1f0d625a1b53"><path d=" M -1.8067030456262343 -0.05421392892359411 L -0.3999999999999999 -0.05421392892359411 L -0.3999999999999999 2.27569347437814 L -1.8067030456262343 2.27569347437814 Z"></path></clipPath><clipPath id="b8967ade5-a2e3-4e06-9d9c-54ea08e644d943f7715c-9b8c-4f2d-b75d-1f0d625a1b53"><path d=" M -1.8067030456262343 2.27569347437814 L -0.4000027370110062 2.27569347437814 L -0.4000027370110062 -0.05420810415508578 L -1.8067030456262343 -0.05420810415508578 Z"></path></clipPath><clipPath id="c8967ade5-a2e3-4e06-9d9c-54ea08e644d943f7715c-9b8c-4f2d-b75d-1f0d625a1b53"><path d=" M -1.8067030456262343 2.27569347437814 L -0.4000027370110062 2.27569347437814 L -0.4000027370110062 -0.05420810415508578 L -1.8067030456262343 -0.05420810415508578 Z"></path></clipPath><clipPath id="d8967ade5-a2e3-4e06-9d9c-54ea08e644d943f7715c-9b8c-4f2d-b75d-1f0d625a1b53"><path d=" M -1.427318893011602 0.537716259873602 L -0.8859532990436948 0.537716259873602 L -0.8859532990436948 0.3266326151232344 L -1.427318893011602 0.3266326151232344 Z"></path></clipPath></defs></svg>